<svg xmlns="http://www.w3.org/2000/svg" width="278" height="278" viewBox="0 0 278 278">
  <g id="Group_1" data-name="Group 1" transform="translate(-41 -3538)">
    <circle id="Ellipse_1" data-name="Ellipse 1" cx="139" cy="139" r="139" transform="translate(41 3538)" fill="#fff"/>
    <path id="Union_2" data-name="Union 2" d="M35.9,176.368c.093-.049-3.527-.446-3.527-.446s-2.986-.283-1.563-2.812c.685-1.219,2.163-1.132,4.147-1.046a14.425,14.425,0,0,0,7.8-1.342c4.773-2.474,5.442-12.355,5.531-15.48q-.065-3.576-.133-7.156c.052-2.179-.827-28.052-.931-49.577q-.265-14.021-.527-28.046c-.019-1.019-.052-2.036-.079-3.056l-9.883-.536c0,7.491-3.6,16.669-3.6,16.669S28.39,67.9,28.39,59.377s.284-20.228,2.655-20.228,3.413,4.869,3.413,7.211,1.9,9.271,3.224,9.271c1,0,6.038.054,8.462.08-.189-3.413-.415-6.82-.711-10.227-.409-4.748-.583-9.513-.949-14.266a58.762,58.762,0,0,0-.831-6.024,6.2,6.2,0,0,0-1.12-2.584c-7.379-2.343-22.487-7.022-22.487-6.031,0,1.311,6.069,18.355,2.751,18.355S-3.369,0,.423,0h0C3.1,0,39.523,8.88,60.67,14.093,81.825,8.88,118.243,0,120.921,0h0c3.793,0-19.056,34.931-22.373,34.931S101.3,17.891,101.3,16.58c0-.991-15.108,3.688-22.486,6.031A6.2,6.2,0,0,0,77.7,25.195a58.513,58.513,0,0,0-.83,6.024c-.367,4.753-.54,9.518-.95,14.266-.3,3.407-.522,6.814-.711,10.227,2.425-.026,7.462-.08,8.463-.08C85,55.632,86.9,48.7,86.9,46.361s1.042-7.211,3.413-7.211,2.655,11.707,2.655,20.228-4.74,24.16-4.74,24.16-3.6-9.178-3.6-16.669l-9.883.536c-.027,1.021-.059,2.038-.079,3.056q-.262,14.024-.526,28.046c-.1,21.525-.983,47.4-.932,49.577q-.067,3.58-.132,7.156c.089,3.125.759,13.006,5.53,15.48a14.42,14.42,0,0,0,7.8,1.342c1.985-.086,3.462-.174,4.149,1.046,1.423,2.529-1.563,2.812-1.563,2.812s-3.62.4-3.527.446C85.461,176.366,80.916,178.548,35.9,176.368Z" transform="translate(118.828 3588.832)" stroke="rgba(0,0,0,0)" stroke-miterlimit="10" stroke-width="1"/>
  </g>
</svg>
