<svg xmlns="http://www.w3.org/2000/svg" width="871.232" height="217.752" viewBox="0 0 871.232 217.752">
  <path id="Union_1" data-name="Union 1" d="M81.2,241.624c-3.792,0-75.189,17.793-75.189,17.793a3.477,3.477,0,0,0-3.506,3.463c0,1.156,1.021,1.791,2.9,2.121,3.527,0,6.906,4.6,8.408,7.549a8.9,8.9,0,0,1,.909,2.728c.41,2.831.823,5.672.995,8.52.08,1.341.127,2.683.161,4.026v42.958q-.025,11.733-.041,23.463c-.017,14.9.037,29.8,0,44.7-.011,4.028.226,8.063-1.515,11.979a11.94,11.94,0,0,1-2.85,4.191,15.381,15.381,0,0,1-6.758,3.59c-.894.215-1.8.395-2.683.64a1.565,1.565,0,0,0-1.277,1.608,1.99,1.99,0,0,0,1.18,2.147c2.038-.1,4.161-.077,6.244-.329,7.594-.918,15.175-1.935,22.764-2.9q7.394-.942,14.79-1.881c-.093-.049,3.527-.447,3.527-.447s2.986-.282,1.563-2.811-6.257.563-11.946-2.388c-4.772-2.474-5.442-12.355-5.531-15.48q.065-3.576.133-7.156c-.052-2.179.827-28.052.931-49.577q.264-14.022.527-28.046c.019-1.019.052-2.036.079-3.056l9.883-.537c0,7.491,3.6,16.669,3.6,16.669s4.74-15.639,4.74-24.16-.284-20.228-2.655-20.228-3.413,4.869-3.413,7.211-1.9,9.271-3.224,9.271c-1,0-6.038.054-8.462.08.189-3.413.415-6.82.711-10.227.41-4.748.583-9.513.95-14.266a58.639,58.639,0,0,1,.83-6.023,6.2,6.2,0,0,1,1.12-2.584c7.379-2.343,22.487-7.022,22.487-6.031,0,1.311-6.068,18.354-2.751,18.354s26.165-34.93,22.373-34.93Zm47.874,100c-.649-2.6-18.7-28.983-23.8-33.581-.032-.041-.06-.082-.093-.125-2.844-3.555-6.685,3.272-10.666,8.106s-16.073,27.734-16.073,28.871,10.24,22.188,14.934,20.054c4.189-1.9,10.852-5.386,12.241-6.113.146-.015.292-.034.447-.045-.05-.075-.1-.14-.15-.213.26-1.287,2.829-13.988,2.964-14.393.11-.329-6.276,2.97-9.473,4.436-1.883-3.158-3.744-6.33-5.692-9.449a2.474,2.474,0,0,1-.028-2.984c1.146-1.855,2.381-3.675,3.338-5.627,1.307-2.674,3.39-4.7,5.126-6.934,1.4,0,1.78,1.06,2.3,1.879,2.517,3.942,4.944,7.938,7.514,11.843a5.96,5.96,0,0,1,.98,4.6c-.84,4.832-1.64,9.675-2.309,14.537-.512,3.7-.737,7.444-1.206,11.155-.389,3.089-1.034,6.149-1.417,9.24-.69,5.569-1.324,11.145-1.864,16.731a5.234,5.234,0,0,1-2.068,3.963c-2.029,1.567-3.97,3.25-5.941,4.89-1.618,1.346-3.2,2.73-4.851,4.039-.093.073-.193.135-.292.2l-1.76.767c-1.09-1.962-2.079-3.673-2.992-5.419-1.949-3.729-3.86-7.474-5.769-11.224a3.78,3.78,0,0,1-.31-1.116c-.926-5.926-2.139-11.828-2.693-17.791-.864-9.314-1.75-18.62-3.372-27.837a8.176,8.176,0,0,1,.157-3.9c1.732-5.737,3.445-11.48,5.215-17.206.755-2.446,1.719-4.832,2.424-7.291a4.1,4.1,0,0,1,2.713-2.891c4.333-1.743,8.561-3.744,12.922-5.4a7.621,7.621,0,0,0,2.014-1.154l.075-.022s4.978-3.7,3.983-5.4-26.027,1.99-29.582,2.132-15.929,33.423-18.2,41.955,2.56,49.5,4.55,58.739C64.321,412.7,88.288,418.2,94.575,416.4a1.735,1.735,0,0,0,.931-.215c.054-.034.11-.067.163-.1,5.23-1.986,28.733-17.9,29.135-21.125C125.234,391.542,129.785,344.466,129.075,341.622ZM206.7,327.476c-.481-.426-1.1.675-2.652.086a3.3,3.3,0,0,1-.737-.428c-2.814-4.628-16.961-28.149-20.4-27.94-3.632.223-19.949,13.969-19.949,13.969s-1.105,1.326-3.149-.849-13.163-12.348-13.163-12.348-1.373-.451-3.306,2.7-12.254,20.637-12.254,20.637a2.751,2.751,0,0,0-.079,2c.428.81,1.017,1.331,2.115.656,0,0,7.143-8.9,10.435-6.371,2.173,1.67,2.68,5.653,2.618,9.1q-.065,1.422-.138,2.93c-.006.082-.011.129-.011.129l.007-.052c-1.212,25.142-3.783,67.593-3.783,67.593s-.1,3.345,7.405,9.417,20.65,14.986,20.65,14.986,3.719,3.719,5.066.905-10.573-9.073-10.947-25.142-.54-73.472-.54-73.472,9.905-9.472,11.972-8.789c.466.155,5.769,5.78,5.909,11.669.262,10.917-10.519,19.62-12.817,21.724-.1.088-.174.159-.258.237-.959.567-1.444.5-2.083,1.408-.838,1.189.6,2.392,2.257,2.139.842-.129,3.347-1.7,6.354-3.66,2.139-1.337,4.927-3.157,7.94-5.156q.583-.365,1.143-.7c5.711-3.461,16.114-7.13,19.813-11.227s3.065-5.73,2.582-6.156Zm73.173-.84L269.718,319.2,250.374,303.27c-1.358.812-8.209,5.356-9.481,6.448.954-24.888,1.821-47.418,2.093-52.6.137-1.245.333-2.841.576-4.249.062-.232.122-.466.193-.683-.024.006-.049.011-.073.019.058-.3.116-.589.178-.853.647-2.779,3.344-5.034,6.15-5.986s5.862-.746,6.356-1.27,3.005-1.61-2.324-2.549-17.93,2.979-24.581,6.652-20.415,7.624-22.118,9.053-.55,3.648,1.447,2.356,6.491-1.636,6.491-1.636,3.323-.675,4.31.823c.593.9.769,2.884.815,4.325-.024,16.673-.1,77.755.037,104.342.032,6.094.077,10.375.135,11.9.006.123.024.256.039.383-.406,1.739-1.077,5.193-.817,5.472,0,.073-.009.146-.013.221a92.566,92.566,0,0,1-2.259,9.365c-.823,2.044-1.713,4.069-2.536,6.113-.071.176-.148.35-.221.524a6.488,6.488,0,0,1-1.081,1.346,3.123,3.123,0,0,1-1.165.683,2.727,2.727,0,0,1-2.036.389,33.865,33.865,0,0,0-6.68-.89,5.043,5.043,0,0,0-1.331.146,1.413,1.413,0,0,0-.307.114.978.978,0,0,0-.011.367,10.624,10.624,0,0,0,.694,2.021,1.768,1.768,0,0,1,.122.471c1.913,1.93,3.817,3.867,5.689,5.836,1.53,1.61,3.353,2.812,4.871,4.4s3.164,3.009,4.746,4.512a6.133,6.133,0,0,0,.583.5l.658.653c.6.374,1.318.155,2.111-.486a1.922,1.922,0,0,0,.982-.959c3.8-4.32,8.8-16.181,11.291-22.434,1.4,1.361,2.36,2.229,2.435,2.309,3.095,3.323,18.326,14.908,22.7,16.168.049.043.1.088.148.133.077-.011.135-.034.209-.047a1.877,1.877,0,0,0,.849,0c4.408-1.281,6.683-9.672,10.667-25.6s9.528-46.649,10.809-55.04S279.87,326.636,279.87,326.636Zm-23.893,55.086s-2.747,13.864-6.068,12.9c-7.783-2.268-11.714-13.933-11.714-13.933s1.04-27.884,2.16-57.276l6.7-6.01a64.148,64.148,0,0,1,12.9,11.852C266.019,336.646,255.977,381.722,255.977,381.722Zm74.858-83.933c-.479-.989-1.49-.757-2.289-.529-2.091.6-4.193,1.193-6.214,1.984-3.044,1.193-6.014,2.569-9.028,3.833q-9.161,3.84-18.343,7.633a9.091,9.091,0,0,1-2.431.793,12.419,12.419,0,0,0-5,2.182c-2.115,1.266-2.745,3.456-2.73,5.96,1.619-.632,3.031-1.305,4.516-1.735,2.48-.714,4.157.342,4.572,2.842a27.651,27.651,0,0,1,.3,3.953c.243,12.4.5,24.8.669,37.194.064,4.755-.206,9.515-.138,14.27.067,4.675-.413,9.313.1,14.04.582,5.313.017,10.747.049,16.127.036,5.769.157,6.416.3,12.185.021.873,17.544-4.941,23.656-10.154a22.624,22.624,0,0,0,2.672-3.213c1.113-1.386,2.164-2.822,3.327-4.161,1.4-1.608,2.882-3.14,4.329-4.7-.144-.194-.116-.157-.258-.352-4.931,2.341-9.859,4.684-15.055,7.153-.039-5.04-.787-9.69-.675-14.421.249-10.435.237-20.877.439-31.311a144.782,144.782,0,0,1,1.292-18.545,128.323,128.323,0,0,0,1.264-17.728,19.646,19.646,0,0,1,9.225-16.989,52.1,52.1,0,0,0,4.724-3.811,2.023,2.023,0,0,0,.722-2.5Zm-38.12,3.57c1.178,2.973,3,3.585,5.215,1.788a205.242,205.242,0,0,0,17.195-15.97c4.333-4.424,8.609-8.929,12.881-13.44a4.684,4.684,0,0,0,.686-1.374c-.144-2.622-1.184-3.405-2.885-2.523-4.589,2.379-9.127,4.905-13.761,7.155-6.928,3.368-13.533,7.8-21.047,9.3a.731.731,0,0,0-.477.34,17.153,17.153,0,0,0-1.629,3.626,5.645,5.645,0,0,0,.509,2.874C290.452,295.9,291.625,298.608,292.715,301.359ZM395.161,404.385a3.632,3.632,0,0,1-.378-.3,6.588,6.588,0,0,1-1.081-1.346c-.073-.176-.15-.348-.219-.525-.825-2.044-1.713-4.067-2.536-6.113a92.837,92.837,0,0,1-2.261-9.365c0-.073-.009-.146-.013-.219.3-.322-.628-4.832-.976-6.117-.279-4.092-.337-8.922-.264-13.883.352-6.367.939-16.03,1.541-25.714,2.173-32.848,5.124-77.177,5.717-84.531.168-1.215.406-2.771.681-4.142.067-.226.133-.453.209-.664l-.073.015c.065-.292.131-.574.2-.83.711-2.7,3.413-4.836,6.188-5.689s5.76-.568,6.257-1.068,2.986-1.492-2.2-2.56-17.636,2.418-24.25,5.833-20.194,6.9-21.9,8.249-.64,3.555,1.352,2.347,6.4-1.421,6.4-1.421,3.273-.57,4.2.924a10.02,10.02,0,0,1,.681,4.258c-.236,7.89-.77,25.943-1.328,45.426l-.064,0-.088,5.322a32.717,32.717,0,0,0-6.644-5.421l-8,4.372c-.608.3-1.206.617-1.778.974l-14.072,7.7-11.235,6.117s-3.129.995-1.849,9.386,6.827,39.111,10.809,55.04,6.259,24.321,10.667,25.6a1.9,1.9,0,0,0,.849,0c.075.013.135.036.209.047l.148-.131c3.656-1.057,11.4-8.462,16.877-14.077l6.519-5.337c1.659,4.338,7.888,20.166,12.413,25.309a1.93,1.93,0,0,0,.982.959c.793.64,1.511.858,2.109.486l.66-.653a6.414,6.414,0,0,0,.583-.5c1.584-1.5,3.239-2.938,4.744-4.514s3.342-2.788,4.873-4.4c1.907-2.007,3.848-3.981,5.8-5.948C401.884,407.71,397.67,407.216,395.161,404.385ZM370.228,332.9c-.2,4.645-.462,10.618-.741,16.119-.318,7.11-.621,14.253-.776,18.857.215,8.374,1.326,16.3,1.326,16.3s-7.444,9.243-10.857,9.814-6.068-12.9-6.068-12.9-8.533-44.942-2.465-52.338a39.706,39.706,0,0,1,13.842-10.618l6.068,6.637s-.015.4-.043,1.115c.015.015.03.03.045.043S370.426,328.71,370.228,332.9Zm95.993,71.486a3.632,3.632,0,0,1-.378-.3,6.588,6.588,0,0,1-1.081-1.346c-.073-.176-.15-.348-.219-.525-.825-2.044-1.713-4.067-2.536-6.113a92.837,92.837,0,0,1-2.261-9.365c0-.073-.009-.146-.013-.219.3-.322-.628-4.832-.976-6.117-.279-4.092-.337-8.922-.264-13.883.352-6.367.939-16.03,1.541-25.714,2.173-32.848,5.124-77.177,5.717-84.531.168-1.215.406-2.771.681-4.142.067-.226.133-.453.209-.664l-.073.015c.065-.292.131-.574.2-.83.711-2.7,3.413-4.836,6.188-5.689s5.76-.568,6.257-1.068,2.986-1.492-2.2-2.56-17.636,2.418-24.25,5.833-20.194,6.9-21.9,8.249-.64,3.555,1.352,2.347,6.4-1.421,6.4-1.421,3.273-.57,4.2.924a10.02,10.02,0,0,1,.681,4.258c-.236,7.89-.77,25.943-1.328,45.426l-.064,0L442,312.272a32.717,32.717,0,0,0-6.644-5.421l-8,4.372c-.608.3-1.206.617-1.778.974l-14.072,7.7-11.235,6.117s-3.129.995-1.849,9.386,6.827,39.111,10.809,55.04,6.259,24.321,10.667,25.6a1.9,1.9,0,0,0,.849,0c.075.013.135.036.209.047l.148-.131c3.656-1.057,11.4-8.462,16.877-14.077l6.519-5.337c1.659,4.338,7.888,20.166,12.413,25.309a1.93,1.93,0,0,0,.982.959c.793.64,1.511.858,2.109.486l.66-.653a6.414,6.414,0,0,0,.583-.5c1.584-1.5,3.239-2.938,4.744-4.514s3.342-2.788,4.873-4.4c1.907-2.007,3.848-3.981,5.8-5.948C472.944,407.71,468.73,407.216,466.221,404.385ZM441.288,332.9c-.2,4.645-.462,10.618-.741,16.119-.318,7.11-.621,14.253-.776,18.857.215,8.374,1.326,16.3,1.326,16.3s-7.444,9.243-10.857,9.814-6.068-12.9-6.068-12.9-8.533-44.942-2.465-52.338a39.706,39.706,0,0,1,13.842-10.618l6.068,6.637s-.015.4-.043,1.115c.015.015.03.03.045.043S441.486,328.71,441.288,332.9Zm92.378,45.136-1.915-5.234a49.66,49.66,0,0,1-1.406-4.811,1.369,1.369,0,0,0,0-.176c-.352-2.409,1.337-3.1.963-3.8s-2.255-.1-2.255-.1-9.012,4.256-13.917,9.515A178.657,178.657,0,0,1,500.7,386.56c-1.6,1.324.215,2.625,1.9,1.655s7.415-4.544,11.469-4.585c1.864-.019,3.269,1.453,4.247,3.044.38.883,1.713,3.893,1.715,3.89,1.967,4.331,3.783,8.518,3.8,9.253.045,1.61-11.789,12.75-14.158,12.815s-17.438-16.592-17.52-19.624c-.073-2.654.784-18.969,1-23.022a1.245,1.245,0,0,1,.922-1.141c5.324-1.4,33.211-8.856,34.941-11.476,1.911-2.9,6.732-31.012,6.732-31.012s.9-1.827-1.526-3.753c-2.235-1.773-22.878-20.3-27.564-23.173a1.2,1.2,0,0,0-.9-.133l.024-.125c-7.538,1.565-32.143,24.748-32.143,24.748l-1.705,66.133s-1.707.284,6.968,11.093c5.967,7.435,16.643,17.357,22.728,22.829a33.766,33.766,0,0,0,4.1,3.637c.309.271.477.415.477.415l.138-.011a3,3,0,0,0,1.425.533c4.552-.125,32.6-27.293,32.514-30.419C540.228,395.923,536.1,384.555,533.666,378.035Zm-21.2-56.726a34.741,34.741,0,0,1,3.454,5.769L511.191,353.5a38.068,38.068,0,0,1-11.379,4.552c-5.141,1.116-6.5.393-6.848.03.107-8.256.855-29.759,1.066-33.548.208-3.738,7.168-10.12,10.031-12.458a1.246,1.246,0,0,1,1.788.226C507.3,314.253,510.463,318.513,512.464,321.308ZM613.631,408.17a1.908,1.908,0,0,0-1.992-1.186l-1.343.228c-1.333.208-5.619,1.242-6.622.34-3.792-3.415,7.871-74.45,8.344-79.266.077-.791-1.806-3.474-2.164-4.219-3.138-6.556-6.326-13.09-9.5-19.629-.709-1.459-1.429-2.913-2.272-4.628a27.29,27.29,0,0,0-3.9,1.5c-6.085,3.488-12.125,7.048-18.167,10.61-1.937,1.143-3.805,2.41-5.75,3.54-1.563.911-2.82.256-2.769-1.533.1-3.467.323-6.938,3.261-9.464,3.052-2.622,6.074-5.279,9.24-8.035-.007-.6-.389-1.107-1.275-.853a11.17,11.17,0,0,0-1.891.853,59.68,59.68,0,0,1-10.723,4.567,71.815,71.815,0,0,0-8.035,2.928c-5.733,2.386-11.426,4.869-17.264,7.368.032.632.069,1.363.1,2.035,1.494.036,2.844.137,4.191.088a3.547,3.547,0,0,1,4.019,3.824c-.024,2.682-.052,5.367.06,8.045.024.593.056,1.187.082,1.782.307,20.779,1.025,67.776,1.32,73.661a11.13,11.13,0,0,1-1.707,7.07,28.269,28.269,0,0,0-2.094,2.2,18.507,18.507,0,0,1-3.215,1.913c-2.655,1.33-.568,5.073-.568,5.073,4.821-1.322,3.033-.784,7.723-2.13,7.884-2.266,15.751-4.6,23.577-6.889-.208-1.906-1.088-2.736-2.751-2.753-4.381-.043-4.481-6.382-4.494-7.33-.1-7.792.256-15.156.217-22.949-.08-15.762-.191-22.376.191-38.494.157-1.533-.57-6.068,2.844-8.724,4.456-3.467,11.338-6.775,16.785-9.748a46.032,46.032,0,0,1,3.785,15.631c.284,9.1-4.7,66.234-6.826,71.395-1.584,3.852-6.506,8.292-8.9,10.294a19.239,19.239,0,0,1-2.844,1.184,2.866,2.866,0,0,0-2.025,3.654c.228,1.221.993,1.584,3.145,1.445a11.9,11.9,0,0,0,1.8-.243c3.291-.735,6.62-1.345,9.859-2.268,8.5-2.429,17.238-4,25.531-7.226a1.07,1.07,0,0,0,.269-.064c.163-.065.312-.14.466-.211.036-.015.073-.028.11-.043.1-.037.195-.069.29-.107,0-.015-.006-.032-.009-.049C613.244,410.533,614.074,409.337,613.631,408.17Zm15.906-20.7,0,.18-8.7,7.274a3.114,3.114,0,0,0-1.118,2.392v6.02a3.121,3.121,0,0,0,1.118,2.394l8.7,7.271.108-.092,8.7-7.271a3.118,3.118,0,0,0,1.118-2.394v-6.018a3.125,3.125,0,0,0-1.118-2.4ZM717,341.622c-.649-2.6-18.7-28.983-23.8-33.581-.032-.041-.06-.082-.094-.125-2.844-3.555-6.685,3.272-10.667,8.106s-16.073,27.734-16.073,28.871,10.24,22.188,14.934,20.054c4.189-1.9,10.852-5.386,12.241-6.113.146-.015.292-.034.447-.045-.05-.075-.1-.14-.15-.213.26-1.287,2.829-13.988,2.964-14.393.11-.329-6.276,2.97-9.473,4.436-1.883-3.158-3.744-6.33-5.692-9.449a2.474,2.474,0,0,1-.028-2.984c1.146-1.855,2.38-3.675,3.338-5.627,1.307-2.674,3.39-4.7,5.126-6.934,1.4,0,1.78,1.06,2.3,1.879,2.517,3.942,4.944,7.938,7.514,11.843a5.96,5.96,0,0,1,.98,4.6c-.84,4.832-1.64,9.675-2.309,14.537-.512,3.7-.737,7.444-1.206,11.155-.389,3.089-1.034,6.149-1.417,9.24-.69,5.569-1.324,11.145-1.864,16.731a5.235,5.235,0,0,1-2.068,3.963c-2.029,1.567-3.97,3.25-5.941,4.89-1.618,1.346-3.2,2.73-4.851,4.039-.094.073-.193.135-.292.2l-1.76.767c-1.09-1.962-2.079-3.673-2.992-5.419-1.949-3.729-3.86-7.474-5.769-11.224a3.782,3.782,0,0,1-.31-1.116c-.926-5.926-2.139-11.828-2.693-17.791-.864-9.314-1.75-18.62-3.372-27.837a8.176,8.176,0,0,1,.157-3.9c1.732-5.737,3.445-11.48,5.215-17.206.755-2.446,1.719-4.832,2.424-7.291a4.1,4.1,0,0,1,2.713-2.891c4.333-1.743,8.561-3.744,12.922-5.4a7.62,7.62,0,0,0,2.014-1.154l.075-.022s4.978-3.7,3.983-5.4-26.027,1.99-29.582,2.132-15.929,33.423-18.2,41.955,2.56,49.5,4.55,58.739c1.952,9.068,25.92,14.571,32.207,12.766a1.735,1.735,0,0,0,.931-.215c.054-.034.11-.067.163-.1,5.23-1.986,28.733-17.9,29.135-21.125C713.162,391.542,717.713,344.466,717,341.622Zm77.622-14.147c-.481-.426-1.1.675-2.652.086a3.3,3.3,0,0,1-.737-.428c-2.814-4.628-16.961-28.149-20.4-27.94-3.632.223-19.949,13.969-19.949,13.969s-1.105,1.326-3.149-.849-13.163-12.348-13.163-12.348-1.373-.451-3.306,2.7-12.254,20.637-12.254,20.637a2.751,2.751,0,0,0-.079,2c.428.81,1.017,1.331,2.115.656,0,0,7.143-8.9,10.435-6.371,2.173,1.67,2.68,5.653,2.618,9.1q-.065,1.422-.138,2.93c-.006.082-.011.129-.011.129l.007-.052c-1.212,25.142-3.783,67.593-3.783,67.593s-.1,3.345,7.405,9.417,20.65,14.986,20.65,14.986,3.719,3.719,5.066.905-10.573-9.073-10.947-25.142-.54-73.472-.54-73.472,9.905-9.472,11.972-8.789c.466.155,5.769,5.78,5.909,11.669.262,10.917-10.519,19.62-12.817,21.724-.1.088-.174.159-.258.237-.959.567-1.444.5-2.083,1.408-.838,1.189.6,2.392,2.257,2.139.841-.129,3.347-1.7,6.354-3.66,2.139-1.337,4.927-3.157,7.94-5.156q.583-.365,1.143-.7c5.711-3.461,16.114-7.13,19.813-11.227s3.065-5.73,2.582-6.156ZM857.25,429.224c.984-1.228,1.725-2.155,2.137-2.659,0,0,2.187-76.6,2.784-85.645.1-1.523.637-7.7.874-9.252.077-.509.584-.952.9-1.424.793-.014,2.1,2.513,3.407,5.5a1.884,1.884,0,0,0,2,1.046c1.271-.007,1.84-1.632,1.544-2.568-.108-.431-.228-.859-.328-1.291q-2.08-8.936-4.675-17.738c-1.512-5.15-2.729-10.476-5.218-15.132a.014.014,0,0,0-.006-.006,2.482,2.482,0,0,0-3.59,1.285c-1.91,3.487-3.881,6.942-5.852,10.4-.6,1.058-1.282,2.073-2.018,3.256a.011.011,0,0,1-.014,0c-1.52-.711-2.847-1.333-4.173-1.952-3.812-1.781-7.632-3.541-11.431-5.348-2.031-.965-4.011-2.036-6.04-3a17.5,17.5,0,0,0-2.973-1.2,3.867,3.867,0,0,0-2.681.416c-4.054,2.592-8.043,5.285-12.078,7.91a3.823,3.823,0,0,0-1.728,2.73c-.279,2.29-.691,4.569-.883,6.866-.47,5.591-.916,11.186-1.237,16.786-.33,5.759-.415,11.533-.76,17.291-.55,9.16-1.224,18.313-1.87,27.807a.01.01,0,0,0,0,.009c1.591,1.216,3.371,2.736,5.307,4.023,3.823,2.542,7.746,4.933,11.6,7.429,2.154,1.394,4.218,2.93,6.391,4.291,1.968,1.233,2.1,1.212,3.793-.46,3.391-3.337,10.2-9.532,10.785-10.118.283.1,1.724,29.131,1.724,29.131.273,3.14.495,6.841.51,7.768.051,3.033-11.956,22.107-14.326,22.147s-15.4-13.4-15.425-15.007c-.013-.762,1.734-5.305,3.579-9.885a9.857,9.857,0,0,1,.839-1.206,9.416,9.416,0,0,1,5.75-3.139,18.241,18.241,0,0,1,10.835,1.453c1.437.828,2.124-.534,1.611-1.45s-2.059-4.02-7.806-7.407-10.338-5.729-13.459-9.446-11.843-6.415-14-3.676-.177,2.137,1.406,3.248c1.517,1.065.852,8.362-.511,13.247l-.017-.006c-2.111,6.636-4.776,15.415-4.745,17.309.052,3.129,28.608,26.4,33.159,26.326C834.219,457.815,850.865,437.189,857.25,429.224Zm-15.969-53.7c-1.044,6.348-12.979,14.87-12.979,14.87-4.18-1.275-5.569-11.741-5.877-14.65.4-15.277,1.2-46.027,1.277-49.59.1-4.529,5.047-9.217,5.12-9.244,0,0,13.227,7.534,13.227,7.538l.3,30.656C842.457,360.435,841.267,374.86,841.282,375.526Z" transform="translate(-0.248 -240.628)" stroke="rgba(0,0,0,0)" stroke-miterlimit="10" stroke-width="1"/>
</svg>
